<mxfile host="app.diagrams.net" modified="2023-04-21T02:21:48.021Z" agent="Mozilla/5.0 (Windows NT 10.0; Win64; x64; rv:109.0) Gecko/20100101 Firefox/112.0" version="21.1.5" etag="5DTo_8QY1vKgyMAZ7Ad-" type="github">
  <diagram name="Page-1" id="lkMxAjJW19riadOLxbv9">
    <mxGraphModel>
      <root>
        <mxCell id="0" />
        <mxCell id="1" parent="0" />
      </root>
    </mxGraphModel>
  </diagram>
</mxfile>
